<?xml version="1.0" standalone="no"?>
<!DOCTYPE svg PUBLIC "-//W3C//DTD SVG 20010904//EN"
 "http://www.w3.org/TR/2001/REC-SVG-20010904/DTD/svg10.dtd">
<svg version="1.0" xmlns="http://www.w3.org/2000/svg"
 width="500.000000pt" height="500.000000pt" viewBox="0 0 500.000000 500.000000"
 preserveAspectRatio="xMidYMid meet">

<g transform="translate(0.000000,500.000000) scale(0.100000,-0.100000)"
fill="#000000" stroke="none">
<path d="M2680 3425 c-63 -18 -139 -60 -147 -81 -13 -35 15 -35 78 0 118 64
257 69 374 11 70 -34 158 -128 198 -212 30 -64 32 -74 32 -183 0 -111 -1 -117
-33 -176 -44 -80 -115 -165 -199 -237 -91 -79 -279 -203 -403 -266 -93 -48
-119 -73 -87 -84 16 -6 170 72 287 145 243 154 405 316 464 468 61 154 7 368
-126 503 -84 85 -160 118 -286 123 -68 3 -113 -1 -152 -11z"/>
<path d="M2144 3416 c-104 -26 -177 -87 -204 -170 -27 -83 26 -198 117 -256
56 -36 102 -39 129 -9 22 24 30 122 19 224 -6 55 -9 65 -26 65 -18 0 -19 -7
-17 -120 3 -99 0 -122 -13 -135 -15 -15 -19 -15 -45 -2 -37 19 -87 72 -108
114 -60 120 60 253 229 253 64 0 150 -41 215 -102 43 -40 49 -43 136 -54 49
-7 107 -19 128 -28 32 -13 36 -18 27 -34 -6 -10 -17 -51 -26 -90 -17 -76 -55
-139 -102 -169 -22 -14 -48 -18 -134 -18 -105 0 -108 -1 -145 -31 -52 -41
-107 -148 -139 -264 -30 -114 -32 -140 -7 -140 12 0 26 20 46 65 33 77 112
155 198 198 31 15 59 27 62 27 3 0 2 -22 -1 -49 -5 -40 -2 -52 15 -69 28 -28
42 -56 42 -84 0 -13 9 -38 21 -57 l20 -34 -20 -20 c-11 -11 -41 -27 -68 -36
-38 -13 -52 -24 -70 -56 -29 -51 -31 -95 -4 -95 13 0 21 9 26 30 8 36 41 80
62 80 31 0 83 33 103 66 l21 33 -25 48 c-15 26 -26 56 -26 66 0 23 -16 55 -42
83 -18 20 -18 23 -3 68 9 27 14 54 11 62 -14 38 -140 -7 -243 -86 -29 -22 -53
-37 -53 -34 0 11 44 91 67 122 44 59 73 70 167 65 69 -5 90 -2 128 15 56 24
102 83 123 156 8 28 22 76 31 107 9 31 14 65 12 75 -5 27 -105 64 -192 71 -66
5 -74 9 -117 49 -98 90 -219 127 -325 100z"/>
<path d="M1885 3309 c-117 -108 -171 -278 -134 -424 19 -73 47 -67 69 15 6 25
30 87 52 138 32 73 38 96 29 105 -17 17 -43 -17 -78 -103 -15 -38 -32 -70 -36
-70 -5 0 -6 24 -2 53 10 77 64 183 124 245 43 43 50 56 41 68 -7 7 -14 14 -16
14 -3 0 -24 -18 -49 -41z"/>
<path d="M1500 1950 c0 -60 4 -100 10 -100 6 0 10 18 10 40 l0 40 44 0 c61 0
68 18 9 22 -48 3 -48 3 -48 38 0 35 0 35 48 38 68 4 58 22 -13 22 l-60 0 0
-100z"/>
<path d="M1696 2029 c-68 -53 -42 -169 41 -185 86 -16 149 69 111 151 -24 53
-104 71 -152 34z m114 -24 c34 -37 33 -90 -4 -121 -35 -31 -70 -30 -101 1 -51
50 -17 145 53 145 18 0 38 -10 52 -25z"/>
<path d="M1910 1951 c0 -61 4 -101 10 -101 6 0 10 18 10 40 0 32 4 40 18 40
11 0 27 -16 41 -40 12 -22 29 -40 37 -40 11 0 8 10 -11 40 l-25 39 25 25 c47
47 24 86 -53 94 l-52 5 0 -102z m94 57 c16 -26 -4 -52 -43 -56 -30 -3 -31 -2
-31 38 0 40 1 41 31 38 18 -2 37 -11 43 -20z"/>
<path d="M2140 2040 c0 -5 14 -10 30 -10 l30 0 0 -90 c0 -73 3 -90 15 -90 12
0 15 17 15 90 l0 90 30 0 c17 0 30 5 30 10 0 6 -32 10 -75 10 -43 0 -75 -4
-75 -10z"/>
<path d="M2330 1950 c0 -60 4 -100 10 -100 6 0 10 20 10 45 l0 45 55 0 55 0 0
-45 c0 -25 5 -45 10 -45 6 0 10 40 10 100 0 60 -4 100 -10 100 -5 0 -10 -20
-10 -45 l0 -45 -55 0 -55 0 0 45 c0 25 -4 45 -10 45 -6 0 -10 -40 -10 -100z"/>
<path d="M2540 1950 l0 -100 65 0 c37 0 65 4 65 10 0 6 -25 10 -55 10 l-55 0
0 35 0 35 50 0 c28 0 50 5 50 10 0 6 -23 10 -51 10 l-50 0 3 33 c3 31 4 32 56
35 71 4 56 22 -19 22 l-59 0 0 -100z"/>
<path d="M2790 1951 l0 -101 60 0 c33 0 60 4 60 10 0 6 -20 10 -45 10 l-44 0
-3 87 c-2 58 -7 88 -15 91 -10 3 -13 -21 -13 -97z"/>
<path d="M2972 2025 c-36 -30 -46 -75 -28 -118 17 -43 37 -58 85 -64 36 -5 44
-2 76 30 25 25 35 44 35 66 0 94 -98 145 -168 86z m118 -20 c71 -76 -32 -194
-105 -120 -51 50 -17 145 53 145 18 0 38 -10 52 -25z"/>
<path d="M3165 2029 c27 -85 69 -179 80 -179 7 0 29 41 49 93 39 101 41 107
27 107 -5 0 -24 -38 -42 -85 -17 -47 -33 -84 -35 -83 -1 2 -16 39 -31 82 -16
44 -35 82 -42 84 -10 3 -11 -2 -6 -19z"/>
<path d="M3370 1950 l0 -100 65 0 c37 0 65 4 65 10 0 6 -25 10 -55 10 l-55 0
0 35 0 35 50 0 c28 0 50 5 50 10 0 6 -22 10 -50 10 l-50 0 0 35 0 35 50 0 c28
0 50 5 50 10 0 6 -27 10 -60 10 l-60 0 0 -100z"/>
<path d="M1496 1736 c-30 -29 -32 -43 -10 -74 18 -26 84 -31 104 -7 17 20 16
63 -1 80 -29 28 -66 29 -93 1z m65 -6 c25 -14 25 -56 -1 -70 -42 -22 -82 34
-48 68 15 15 24 15 49 2z"/>
<path d="M1650 1695 c0 -37 4 -65 10 -65 6 0 10 11 10 25 0 20 5 25 24 25 35
0 42 18 9 22 -17 2 -29 10 -31 21 -3 13 3 17 27 17 17 0 31 5 31 10 0 6 -18
10 -40 10 l-40 0 0 -65z"/>
<path d="M1861 1716 c-29 -66 -34 -86 -21 -86 6 0 13 7 16 15 8 20 54 19 69
-2 7 -9 14 -12 17 -7 7 11 -41 124 -53 124 -4 0 -17 -20 -28 -44z m42 -16 c4
-15 0 -20 -13 -20 -13 0 -17 5 -13 20 3 11 9 20 13 20 4 0 10 -9 13 -20z"/>
<path d="M1990 1701 c0 -33 5 -63 10 -66 6 -4 10 13 11 42 l0 48 17 -25 c26
-38 61 -72 70 -66 12 7 8 119 -5 123 -8 3 -13 -11 -15 -39 l-3 -43 -28 43
c-40 61 -57 56 -57 -17z"/>
<path d="M2150 1701 c0 -33 5 -63 10 -66 6 -4 10 18 10 59 0 37 -4 66 -10 66
-6 0 -10 -26 -10 -59z"/>
<path d="M2220 1695 c0 -78 18 -88 22 -12 l3 52 18 -53 c10 -28 23 -50 28 -47
4 3 14 24 20 45 16 53 29 51 29 -6 0 -27 4 -43 10 -39 6 3 10 33 10 66 0 52
-2 59 -20 59 -14 0 -22 -11 -31 -40 -7 -22 -15 -40 -19 -40 -4 0 -12 18 -19
40 -9 29 -17 40 -31 40 -18 0 -20 -7 -20 -65z"/>
<path d="M2431 1716 c-32 -72 -35 -87 -17 -80 9 3 16 10 16 15 0 16 53 9 66
-8 7 -10 15 -15 18 -12 8 7 -45 129 -55 129 -5 0 -17 -20 -28 -44z m39 -22 c0
-8 -7 -14 -15 -14 -17 0 -18 2 -9 24 7 18 24 12 24 -10z"/>
<path d="M2562 1698 c3 -63 3 -63 33 -62 47 3 52 6 20 13 -28 6 -30 9 -33 59
-2 28 -8 52 -13 52 -6 0 -9 -26 -7 -62z"/>
<path d="M2740 1701 c0 -33 5 -63 10 -66 6 -4 10 5 10 19 0 33 11 33 39 0 26
-30 39 -26 19 5 -10 16 -10 23 0 33 30 30 2 68 -52 68 -25 0 -26 -2 -26 -59z
m65 19 c0 -8 -10 -16 -22 -18 -18 -3 -23 2 -23 18 0 16 5 21 23 18 12 -2 22
-10 22 -18z"/>
<path d="M2880 1697 l0 -63 40 1 c37 0 58 14 25 16 -8 1 -20 2 -27 3 -24 2
-19 26 6 26 35 0 42 18 9 22 -17 2 -29 10 -31 21 -3 13 3 17 27 17 17 0 31 5
31 10 0 6 -18 10 -40 10 l-40 0 0 -63z"/>
<path d="M3018 1749 c-28 -16 -22 -46 12 -58 47 -16 38 -37 -12 -32 -23 3 -23
-15 0 -21 57 -15 87 44 32 64 -33 11 -35 32 -4 34 35 2 39 4 24 14 -19 12 -30
12 -52 -1z"/>
<path d="M3155 1748 c-61 -34 -38 -108 33 -108 18 0 32 5 32 11 0 5 -8 9 -17
8 -33 -3 -42 1 -53 22 -16 28 14 63 47 54 26 -6 32 9 7 19 -21 8 -25 7 -49 -6z"/>
<path d="M3264 1711 c2 -27 7 -54 10 -60 11 -17 76 -13 83 5 11 29 8 97 -5
102 -8 2 -12 -11 -12 -46 0 -31 -5 -52 -12 -55 -28 -9 -38 6 -38 54 0 36 -4
49 -15 49 -11 0 -13 -11 -11 -49z"/>
<path d="M3420 1697 l0 -63 40 0 c22 0 40 5 40 11 0 6 -12 11 -27 10 -14 0
-28 6 -30 13 -3 7 5 12 21 12 35 0 42 18 9 22 -17 2 -29 10 -31 21 -3 13 3 17
27 17 17 0 31 5 31 10 0 6 -18 10 -40 10 l-40 0 0 -63z"/>
</g>
</svg>
